HIERARCHY
ROOT RootJoint
{
    OFFSET   0.000000   0.000000   0.000000
    CHANNELS 6 Xposition Yposition Zposition Xrotation Yrotation Zrotation
    JOINT pelvis_lowerback
    {
        OFFSET   0.000000   0.093605   0.000000
        CHANNELS 3 Xrotation Yrotation Zrotation
        JOINT lowerback_torso
        {
            OFFSET   0.000000   0.100000   0.000000
            CHANNELS 3 Xrotation Yrotation Zrotation
            JOINT torso_head
            {
                OFFSET   0.000000   0.282350   0.000000
                CHANNELS 3 Xrotation Yrotation Zrotation
                End Site
                {
                    OFFSET   0.000000   0.192650   0.000000
                }
            }
            JOINT rTorso_Clavicle
            {
                OFFSET  -0.001000   0.157500   0.000000
                CHANNELS 3 Xrotation Yrotation Zrotation
                JOINT rShoulder
                {
                    OFFSET  -0.117647   0.000000   0.000000
                    CHANNELS 3 Xrotation Yrotation Zrotation
                    JOINT rElbow
                    {
                        OFFSET  -0.245000   0.000000   0.000000
                        CHANNELS 3 Xrotation Yrotation Zrotation
                        JOINT rWrist
                        {
                            OFFSET  -0.240000   0.000000   0.000000
                            CHANNELS 3 Xrotation Yrotation Zrotation
                            End Site
                            {
                                OFFSET  -0.116353  -0.002500   0.000000
                            }
                        }
                    }
                }
            }
            JOINT lTorso_Clavicle
            {
                OFFSET   0.001000   0.157500   0.000000
                CHANNELS 3 Xrotation Yrotation Zrotation
                JOINT lShoulder
                {
                    OFFSET   0.117647   0.000000   0.000000
                    CHANNELS 3 Xrotation Yrotation Zrotation
                    JOINT lElbow
                    {
                        OFFSET   0.245000   0.000000   0.000000
                        CHANNELS 3 Xrotation Yrotation Zrotation
                        JOINT lWrist
                        {
                            OFFSET   0.240000   0.000000   0.000000
                            CHANNELS 3 Xrotation Yrotation Zrotation
                            End Site
                            {
                                OFFSET   0.116353  -0.002500   0.000000
                            }
                        }
                    }
                }
            }
        }
    }
    JOINT rHip
    {
        OFFSET  -0.100000  -0.051395   0.000000
        CHANNELS 3 Xrotation Yrotation Zrotation
        JOINT rKnee
        {
            OFFSET   0.000000  -0.410000   0.000000
            CHANNELS 3 Xrotation Yrotation Zrotation
            JOINT rAnkle
            {
                OFFSET   0.000000  -0.390000   0.000000
                CHANNELS 3 Xrotation Yrotation Zrotation
                JOINT rToeJoint
                {
                    OFFSET   0.000000  -0.050000   0.130000
                    CHANNELS 3 Xrotation Yrotation Zrotation
                    End Site
                    {
                        OFFSET  -0.010000   0.002000   0.060000
                    }
                }
            }
        }
    }
    JOINT lHip
    {
        OFFSET   0.100000  -0.051395   0.000000
        CHANNELS 3 Xrotation Yrotation Zrotation
        JOINT lKnee
        {
            OFFSET   0.000000  -0.410000   0.000000
            CHANNELS 3 Xrotation Yrotation Zrotation
            JOINT lAnkle
            {
                OFFSET   0.000000  -0.390000   0.000000
                CHANNELS 3 Xrotation Yrotation Zrotation
                JOINT lToeJoint
                {
                    OFFSET   0.000000  -0.050000   0.130000
                    CHANNELS 3 Xrotation Yrotation Zrotation
                    End Site
                    {
                        OFFSET   0.010000   0.002000   0.060000
                    }
                }
            }
        }
    }
}
MOTION
Frames: 8
Frame Time:   0.008333
 -2.485073   0.883928   5.635426 157.800942 -58.764643 166.168569  18.769920 -11.694158   6.128989   0.893184 -15.409646   8.053598  -2.851466  -0.662460  -5.531559   0.022654  -0.159154   3.346532  -6.677648  -3.636848  31.229649   0.002693  78.832941   0.010846  -3.646093   2.959454  -9.204349  -0.277146 -26.265196   0.497290  -2.937287 -40.884230 -36.693282  -0.002905 -65.777173  -0.003130   0.897218  -8.134773   5.263344 -36.494952   5.680548 -11.012222  27.721972  -0.000924  -0.002554  -3.156892   9.360233   6.068549   0.618822  -0.000458   0.002067   1.244841  20.595589  -0.616777  23.893275  -0.001022  -0.001397   0.981420  20.175332  -2.449304 -45.119665   0.000029  -0.000279
 -2.485940   0.883954   5.634448 158.034988 -58.858973 166.361644  18.634058 -11.771721   6.215764   0.914871 -15.421731   8.046472  -2.919705  -0.641404  -5.537502   0.072897  -0.356285   3.368558  -6.249347  -3.484203  31.558027   0.007848  79.263020   0.004730  -3.597503   2.987604  -9.159449  -0.284110 -26.010935   0.516991  -2.614089 -40.871474 -36.836632  -0.002507 -65.702901  -0.002660   0.923894  -8.241127   5.270301 -36.361129   5.731254 -10.970368  28.002974  -0.000792  -0.001735  -3.427612   9.346199   5.897325   0.639149  -0.000339   0.001673   1.545008  21.034623  -0.655699  23.670819  -0.001189  -0.002023   1.111879  20.467993  -2.425021 -45.095733  -0.000068  -0.000090
 -2.486823   0.884039   5.633377 158.251544 -58.914924 166.540718  18.486419 -11.823604   6.289680   0.921978 -15.401213   8.035735  -2.988594  -0.621634  -5.540183   0.123686  -0.533689   3.385892  -5.846244  -3.329968  31.866832   0.012062  79.673103  -0.000396  -3.543705   3.055071  -9.053627  -0.270758 -25.739978   0.549991  -2.285697 -40.837473 -36.958148  -0.002144 -65.627091  -0.002244   0.947389  -8.326448   5.263658 -36.231745   5.764412 -10.917031  28.236064  -0.000700  -0.001215  -3.682229   9.331611   5.737395   0.738318  -0.000156   0.001398   1.825522  21.451269  -0.690178  23.451860  -0.001256  -0.002417   1.281450  20.751638  -2.406450 -45.076587  -0.000124   0.000024
 -2.487712   0.884146   5.632229 158.451457 -58.961395 166.706038  18.334900 -11.855883   6.354330   0.919132 -15.362174   8.026054  -3.054291  -0.603297  -5.541299   0.169974  -0.695665   3.399365  -5.471947  -3.180510  32.153643   0.015269  80.058006  -0.004507  -3.489760   3.135525  -8.936593  -0.250416 -25.468854   0.590558  -1.966066 -40.793382 -37.063305  -0.001796 -65.551616  -0.001861   0.967489  -8.382492   5.253017 -36.105234   5.784238 -10.861917  28.448203  -0.000632  -0.000844  -3.922978   9.314430   5.590386   0.831423  -0.000033   0.001159   2.086505  21.838976  -0.715940  23.246459  -0.001250  -0.002630   1.472302  21.018549  -2.393161 -45.061270  -0.000154   0.000089
 -2.488603   0.884264   5.631019 158.633888 -59.009260 166.858163  18.182667 -11.873359   6.411536   0.908135 -15.311545   8.017049  -3.116383  -0.586074  -5.541464   0.211182  -0.843482   3.409593  -5.125326  -3.036595  32.419330   0.017638  80.418249  -0.007766  -3.437006   3.219900  -8.822219  -0.228799 -25.204420   0.634514  -1.660864 -40.744337 -37.155512  -0.001461 -65.478201  -0.001504   0.985119  -8.417647   5.245022 -35.981351   5.794096 -10.809986  28.649324  -0.000579  -0.000563  -4.151292   9.294184   5.455511   0.889543   0.000022   0.000948   2.330205  22.199967  -0.734739  23.055570  -0.001200  -0.002721   1.667223  21.269094  -2.383032 -45.004214  -0.000318   0.000314
 -2.489495   0.884392   5.629754 158.797533 -59.063148 166.997073  18.031273 -11.879608   6.462035   0.890149 -15.253439   8.008166  -3.174974  -0.569828  -5.541035   0.247496  -0.977968   3.417358  -4.804561  -2.898213  32.665476   0.019332  80.755169  -0.010327  -3.385739   3.305605  -8.713180  -0.208260 -24.950038   0.679389  -1.372345 -40.693271 -37.237355  -0.001145 -65.407815  -0.001176   1.001004  -8.439329   5.242414 -35.859584   5.796332 -10.763687  28.842274  -0.000536  -0.000343  -4.368125   9.271147   5.331628   0.904966   0.000029   0.000763   2.558108  22.536597  -0.748477  22.878116  -0.001127  -0.002731   1.856688  21.504364  -2.374606 -44.870900  -0.000693   0.000789
 -2.490386   0.884531   5.628437 158.941440 -59.124698 167.121698  17.881748 -11.877067   6.506794   0.866255 -15.190416   7.999183  -3.230188  -0.554480  -5.540184   0.279241  -1.099906   3.423024  -4.507817  -2.765194  32.893581   0.020482  81.070258  -0.012312  -3.336006   3.391888  -8.609460  -0.189818 -24.707353   0.723959  -1.101196 -40.641977 -37.310681  -0.000855 -65.340996  -0.000879   1.015607  -8.452603   5.245773 -35.740086   5.792286 -10.723072  29.028186  -0.000502  -0.000167  -4.574322   9.245545   5.217853   0.877739   0.000007   0.000602   2.770553  22.850816  -0.757276  22.712237  -0.001043  -0.002689   2.040753  21.725358  -2.367718 -44.667259  -0.001200   0.001417
 -2.491344   0.884654   5.626954 159.117249 -59.077252 167.230014  17.676016 -11.874689   6.559418   0.904935 -15.106218   7.966306  -3.294375  -0.557452  -5.491266   0.337502  -1.155410   3.440562  -4.127152  -2.555439  33.064862   0.024775  81.440786  -0.017336  -3.264790   3.461179  -8.495691  -0.150257 -24.374657   0.741390  -0.760228 -40.458797 -37.368009  -0.000716 -65.362317  -0.000750   1.013553  -8.512945   5.234417 -35.626460   5.765243 -10.590745  29.145415  -0.000482  -0.000144  -4.692375   9.275125   5.059522   0.613837  -0.000167   0.000462   2.994589  23.236945  -0.735630  22.539328  -0.000952  -0.002625   2.046710  21.996439  -2.313533 -43.840941  -0.003647   0.004351
